<svg xmlns="http://www.w3.org/2000/svg" viewBox="0 0 920 560" role="img" aria-label="10/05 Option T 班戈 -&gt; 扎西半岛 -&gt; 拉萨">
<defs>
<style>
.bg{fill:#f5efe3} .plot{fill:#fbf8f0;stroke:#d4c6ad;stroke-width:1}
.grid line{stroke:#d7cbb7;stroke-width:.8;opacity:.75} .grid-label{fill:#776e63;font:12px Arial,"Microsoft YaHei",sans-serif}
.title{fill:#201d19;font:700 26px Arial,"Microsoft YaHei",sans-serif} .sub{fill:#756b5f;font:13px Arial,"Microsoft YaHei",sans-serif}
.route{fill:none;stroke:#245a73;stroke-width:5.2;stroke-linecap:round;stroke-linejoin:round} .route.dashed{stroke:#8b2f2a;stroke-dasharray:14 11} .route.muted{stroke:#9a8b76;stroke-width:3.8;opacity:.7}
.marker circle{fill:#f7f1e7;stroke:#8b2f2a;stroke-width:2.8} .marker-num{fill:#8b2f2a;text-anchor:middle;font:700 11px Arial,sans-serif}
.marker-label{fill:#201d19;font:700 14px Arial,"Microsoft YaHei",sans-serif;paint-order:stroke;stroke:#fbf8f0;stroke-width:4px} .note{fill:#5f574e;font:13px Arial,"Microsoft YaHei",sans-serif}
</style>
</defs>
<rect class="bg" width="920" height="560"/><text class="title" x="56" y="42">10/05 Option T 班戈 -&gt; 扎西半岛 -&gt; 拉萨</text>
<text class="sub" x="56" y="66">真实经纬度；可取得时使用 OSM/OSRM 路网几何；不替代当天导航或景区准入确认。</text>
<rect class="plot" x="56" y="82" width="808" height="418"/>
<g class="grid"><line x1="56.0" y1="82" x2="56.0" y2="500" /><text x="60.0" y="528" class="grid-label">89.8E</text><line x1="258.0" y1="82" x2="258.0" y2="500" /><text x="262.0" y="528" class="grid-label">90.2E</text><line x1="460.0" y1="82" x2="460.0" y2="500" /><text x="464.0" y="528" class="grid-label">90.6E</text><line x1="662.0" y1="82" x2="662.0" y2="500" /><text x="666.0" y="528" class="grid-label">90.9E</text><line x1="864.0" y1="82" x2="864.0" y2="500" /><text x="868.0" y="528" class="grid-label">91.3E</text><line x1="56" y1="82.0" x2="864" y2="82.0" /><text x="16" y="86.0" class="grid-label">31.7N</text><line x1="56" y1="221.3" x2="864" y2="221.3" /><text x="16" y="225.3" class="grid-label">30.9N</text><line x1="56" y1="360.7" x2="864" y2="360.7" /><text x="16" y="364.7" class="grid-label">30.1N</text><line x1="56" y1="500.0" x2="864" y2="500.0" /><text x="16" y="504.0" class="grid-label">29.4N</text></g><polyline class="route" points="153.9,116.5 154.7,115.5 155.6,115.0 156.3,114.8 161.6,114.4 167.7,113.7 176.1,112.7 177.5,111.7 182.6,111.2 189.2,111.0 192.9,110.5 195.9,110.3 198.8,111.0 200.5,112.2 205.6,113.3 213.5,116.6 222.8,119.4 228.2,119.9 238.5,120.4 245.5,120.0 249.4,119.6 253.9,119.5 256.5,119.8 262.8,121.1 269.1,122.0 272.8,122.5 273.7,122.8 274.5,123.0 275.3,123.0 276.7,123.2 279.3,123.7 280.5,124.2 281.4,124.4 283.0,124.3 285.9,124.1 289.4,123.8 291.1,123.5 293.3,123.0 296.8,122.9 301.9,122.8 305.5,123.2 307.4,123.7 308.2,124.0 308.8,124.2 310.1,125.0 312.3,126.7 312.7,127.1 319.2,127.8 324.5,129.4 327.8,131.4 331.9,133.6 333.8,135.5 334.5,136.9 334.9,139.9 335.3,140.6 336.9,140.9 337.8,141.4 341.0,141.7 347.8,142.9 350.1,143.3 354.4,143.4 358.2,144.1 361.5,145.8 367.7,146.6 372.4,146.8 372.1,147.6 372.8,148.4 376.1,149.0 379.5,149.5 382.5,149.7 386.9,150.8 391.0,152.5 394.9,153.3 396.5,154.0 399.6,154.4 403.2,155.1 406.0,155.6 407.3,156.3 410.3,156.9 414.2,157.5 415.5,158.8 417.9,159.4 422.3,159.9 425.1,160.9 426.6,160.8 429.9,160.2 430.6,159.7 430.7,160.0 430.0,161.0 435.2,161.6 439.0,163.8 444.5,164.4 453.1,165.5 456.1,167.8 458.2,169.1 460.6,169.5 464.3,170.0 466.6,171.1 469.6,172.0 473.0,173.2 473.9,173.9 478.4,173.9 479.9,173.7 480.7,174.0 480.9,173.5 481.6,173.8 481.4,173.4 481.9,173.5 484.5,174.0 488.2,174.6 492.9,175.1 494.9,175.7 495.7,175.4 497.1,175.6 498.7,175.6 501.0,174.6 502.3,173.6 503.6,172.8 504.1,172.3 505.3,171.6 505.6,171.0 506.3,170.6 507.8,170.1 508.4,169.6 507.9,169.0 508.0,168.8 507.7,167.8 506.7,167.1 507.4,165.8 506.1,163.1 506.9,162.4 509.9,161.5 512.4,160.2 515.0,159.6 517.3,159.5 526.5,160.2 532.0,159.8 536.5,160.0 540.1,160.6 543.9,161.5 548.6,162.0 550.7,162.5 556.1,163.3 560.3,164.6 561.7,165.1 563.2,165.6 563.6,165.7 569.7,167.8 570.6,168.3 576.0,172.1 581.6,175.2 583.2,177.7 586.4,179.0 590.9,179.5 594.8,179.7 597.0,180.4 598.3,181.0 610.5,183.4 620.2,183.9 626.7,184.5 632.5,185.2 636.7,186.0 646.2,187.4 650.7,188.9 651.5,189.1 657.1,190.2 662.7,192.0 666.0,193.1 669.1,193.5 671.7,194.3 676.1,196.0 677.3,196.6 678.9,198.1 678.0,198.5 677.9,198.9 679.0,199.6 682.0,199.3 683.6,199.0 685.4,199.1 688.5,199.9 690.4,201.2 689.7,201.7 689.8,201.8 690.5,201.8 690.0,202.1 689.9,202.2 690.7,202.4 690.0,202.5 691.7,202.6 691.0,202.8 691.7,203.0 693.4,202.8 693.3,203.2 694.1,203.5 694.8,203.3 694.8,203.4 695.2,203.9 695.5,203.8 696.0,203.6 696.2,203.7 696.5,204.3 697.4,204.0 698.4,204.0 697.7,204.6 700.6,206.2 705.9,208.5 710.0,210.8 713.3,212.1 715.8,213.3 718.8,214.7 723.9,217.5 727.0,221.4 728.4,223.5 732.3,225.8 733.5,227.4 732.8,229.4 731.7,231.2 732.1,232.1 727.5,233.5 713.6,235.8 699.2,237.5 697.9,238.3 709.8,236.1 722.1,234.6 731.2,232.6 731.8,231.7 732.3,230.0 733.4,227.6 732.8,226.1 729.7,224.4 727.8,222.6 730.6,223.1 739.2,224.0 748.8,226.3 750.7,228.3 755.7,230.9 755.4,231.7 753.0,234.4 751.2,236.6 747.7,238.8 744.4,240.2 743.1,241.1 741.3,242.2 740.4,242.7 740.3,244.1 740.6,245.7 740.4,246.7 743.5,247.6 748.4,248.5 748.4,249.2 745.3,249.1 745.2,249.5 746.7,250.2 745.5,250.8 747.6,250.4 749.1,250.1 749.0,250.2 747.4,250.9 747.0,251.5 747.0,252.0 746.3,252.6 745.2,253.6 742.4,253.8 745.8,254.1 747.7,255.1 749.5,256.3 750.2,257.1 750.3,257.9 750.6,258.9 751.5,259.5 752.3,260.3 752.5,261.5 752.9,262.0 752.9,262.2 752.9,262.6 752.4,263.3 752.4,264.5 753.1,265.2 752.8,266.1 753.2,267.1 754.2,268.1 753.8,268.8 753.9,269.3 752.3,269.8 753.4,270.1 754.4,270.4 754.7,270.3 753.8,269.9 754.0,269.9 755.1,270.2 754.9,269.9 755.6,269.4 755.7,269.0 756.3,269.4 756.9,269.9 756.4,270.4 756.5,271.3 757.9,271.6 759.9,273.0 760.1,273.5 759.7,275.2 759.9,275.6 761.7,276.8 763.6,277.4 763.7,277.6 763.3,277.8 761.3,278.6 758.6,280.1 758.8,281.2 756.3,282.9 754.7,284.2 752.9,286.3 754.0,286.8 753.0,287.2 752.0,287.4 752.3,288.4 751.9,288.8 752.0,289.1 751.7,289.5 751.2,289.6 748.7,290.4 749.5,290.9 751.7,290.5 752.3,290.3 752.5,290.4 752.1,290.3 750.4,290.8 749.2,291.2 745.7,291.7 744.9,291.9 738.5,294.1 735.5,294.4 729.4,295.3 728.0,295.9 727.9,296.0 727.5,296.1 727.1,296.2 724.7,296.6 724.1,296.6 721.0,296.7 719.8,296.5 718.3,296.4 716.6,296.5 712.7,297.1 711.4,298.3 709.1,299.6 707.8,300.4 704.7,300.6 701.1,300.8 697.5,300.8 694.2,300.8 692.7,301.1 691.9,301.4 688.4,302.1 688.2,302.3 688.1,302.4 688.0,302.6 687.8,302.7 687.5,302.8 687.0,302.9 686.6,302.9 685.7,302.8 685.2,302.9 680.2,303.7 668.8,306.1 662.6,307.3 659.6,307.6 657.6,308.0 654.4,308.6 653.2,309.1 652.0,309.6 646.6,311.1 638.0,313.5 621.6,317.1 613.0,318.8 599.0,321.0 586.4,323.1 575.2,325.5 558.9,328.8 554.9,329.6 551.3,330.1 532.5,330.7 519.3,331.1 515.4,331.8 504.7,334.4 497.9,336.1 496.4,336.7 492.6,339.3 490.6,341.6 488.8,343.1 486.7,343.8 485.8,344.1 482.5,345.1 477.0,346.4 473.6,347.2 468.1,349.3 464.4,349.9 460.0,350.7 458.4,350.9 455.7,351.6 454.8,351.8 453.7,352.1 452.0,352.5 449.5,353.2 448.2,353.5 447.3,353.7 446.2,354.5 445.3,355.7 445.2,357.1 446.1,358.3 446.6,359.1 446.5,360.3 445.8,360.8 445.7,361.4 444.7,362.3 444.5,363.2 444.5,364.5 445.9,365.2 450.5,366.0 455.4,366.7 458.1,368.0 459.3,368.7 461.0,368.8 462.4,369.0 464.0,369.5 463.9,370.5 464.3,371.0 465.2,371.1 467.5,371.5 470.9,371.8 471.3,372.1 471.1,372.4 471.6,373.1 474.2,373.9 478.2,374.6 479.9,374.8 481.6,375.1 483.6,375.7 485.0,375.8 486.6,375.8 488.2,375.7 490.4,375.9 493.3,377.6 493.3,378.2 494.3,379.3 497.4,379.9 498.7,380.2 500.1,380.5 502.2,381.3 502.4,381.5 502.6,381.7 502.8,381.8 503.2,381.8 504.7,382.0 511.2,382.7 512.9,383.1 513.2,383.6 515.9,384.4 518.4,385.7 521.3,386.2 522.6,386.8 528.3,387.3 530.7,387.7 534.9,388.0 537.4,388.1 538.0,387.2 538.3,386.5 540.6,385.4 541.9,384.9 543.7,383.7 543.0,383.1 543.7,382.3 543.6,381.7 544.1,381.3 544.6,380.8 545.1,380.1 544.6,379.7 544.2,375.6 545.5,374.9 547.2,373.8 545.5,367.5 545.5,367.5 547.2,373.8 545.5,374.9 544.2,375.6 544.6,379.7 545.1,380.1 544.6,380.8 544.1,381.3 543.6,381.7 543.7,382.3 543.0,383.1 543.7,383.7 541.9,384.9 540.6,385.4 538.3,386.5 538.0,387.2 537.4,388.1 537.8,388.8 540.7,389.6 541.5,390.4 542.1,393.1 542.3,394.6 540.7,396.3 538.5,397.3 538.3,397.8 539.0,398.9 542.2,402.9 542.7,405.2 543.1,406.4 544.7,407.9 548.5,409.2 550.5,409.9 552.8,411.5 556.8,414.8 559.2,417.4 562.4,419.7 564.1,420.4 567.3,421.8 571.3,423.8 572.2,424.9 573.6,425.6 575.3,426.0 575.6,426.8 575.6,427.5 576.8,428.1 577.0,428.6 577.5,429.0 577.2,429.6 577.9,430.0 579.2,430.1 584.2,430.0 585.5,430.0 587.4,430.3 589.3,431.1 591.7,431.7 593.3,431.8 596.7,432.0 599.8,433.3 603.5,434.3 606.6,434.6 611.7,435.8 615.4,436.6 620.6,437.4 627.4,438.4 629.2,439.0 630.6,439.5 632.5,441.4 633.4,441.6 634.5,441.8 639.6,442.5 642.5,442.9 648.4,443.6 656.2,444.6 658.5,444.9 661.9,445.3 667.7,446.0 671.6,446.4 674.3,446.7 676.5,446.9 680.8,447.3 686.7,447.7 692.0,448.2 697.1,448.8 701.0,449.2 702.4,449.3 704.4,449.3 706.4,449.4 711.4,449.5 717.8,449.6 725.6,449.6 733.3,449.5 737.4,449.4 740.1,449.3 745.0,449.2 747.6,449.1 750.3,449.2 752.4,448.1 753.6,447.7 756.2,446.9 760.6,446.8 766.1,446.9" /><g class="marker"><circle cx="154.2" cy="116.5" r="8"/><text x="154.2" y="120.5" class="marker-num">1</text><text x="166.2" y="100.5" class="marker-label">班戈</text></g><g class="marker"><circle cx="661.1" cy="237.1" r="8"/><text x="661.1" y="241.1" class="marker-num">2</text><text x="673.1" y="221.1" class="marker-label">扎西半岛</text></g><g class="marker"><circle cx="703.7" cy="268.6" r="8"/><text x="703.7" y="272.6" class="marker-num">3</text><text x="715.7" y="252.6" class="marker-label">那根拉</text></g><g class="marker"><circle cx="751.2" cy="290.2" r="8"/><text x="751.2" y="294.2" class="marker-num">4</text><text x="763.2" y="274.2" class="marker-label">当雄</text></g><g class="marker"><circle cx="575.9" cy="361.2" r="8"/><text x="575.9" y="365.2" class="marker-num">5</text><text x="587.9" y="345.2" class="marker-label">念青唐古拉观景带</text></g><g class="marker"><circle cx="766.1" cy="446.9" r="8"/><text x="766.1" y="450.9" class="marker-num">6</text><text x="778.1" y="430.9" class="marker-label">拉萨</text></g>
<text class="note" x="62" y="516"><tspan x="62" dy="0">圣象天门条件不合适时启用；地理顺序已按扎西半岛 -&gt; 那根拉 -&gt; 当雄 -&gt; 拉萨。</tspan></text></svg>